<svg xmlns="http://www.w3.org/2000/svg" width="20.003" height="18" viewBox="0 0 20.003 18">
  <path id="Path_2986" data-name="Path 2986" d="M1057.525,281.442l-7.27,12.615a2.929,2.929,0,0,0-.25,1,2.757,2.757,0,0,0,.73,2.021,2.839,2.839,0,0,0,1.95.921h14.64a3.153,3.153,0,0,0,.91-.2,2.8,2.8,0,0,0,1.56-3.656l-7.32-12.713a2.73,2.73,0,0,0-1.1-1.08A2.851,2.851,0,0,0,1057.525,281.442Zm1.61,8.314a.875.875,0,0,0,1.75,0v-2.8a.875.875,0,0,0-1.75,0Zm.87,4.262a.873.873,0,1,0,0-1.745.867.867,0,0,0-.87.862A.879.879,0,0,0,1060,294.018Z" transform="translate(-1050.001 -280)" fill-rule="evenodd"/>
</svg>
