<svg xmlns="http://www.w3.org/2000/svg" width="17" height="20" viewBox="0 0 17 20">
  <path id="Path_2947" data-name="Path 2947" d="M493.293,229.8a3.887,3.887,0,0,1-1.063,2.85,3.363,3.363,0,0,0-.73,2.31,3.613,3.613,0,0,0,.863,2.378,4.534,4.534,0,0,0,2.9,1.413c1.571.134,3.143.247,4.737.247a41.693,41.693,0,0,0,4.736-.247,4.53,4.53,0,0,0,2.9-1.413,3.614,3.614,0,0,0,.864-2.378,3.368,3.368,0,0,0-.73-2.31,3.8,3.8,0,0,1-1.064-2.85v-.426a5.625,5.625,0,0,0-1.283-3.858A7.074,7.074,0,0,0,500.044,223h-.089a7.04,7.04,0,0,0-5.467,2.625,5.542,5.542,0,0,0-1.2,3.745Zm9.633,11.265c0-.5-.462-.734-.889-.833a25.778,25.778,0,0,0-4.046,0c-.428.1-.89.329-.89.833a1.557,1.557,0,0,0,.695,1.174,3.625,3.625,0,0,0,1.713.731,3.739,3.739,0,0,0,1.008,0,3.612,3.612,0,0,0,1.714-.732A1.553,1.553,0,0,0,502.926,241.061Z" transform="translate(-491.5 -223)" fill="#12123c" fill-rule="evenodd"/>
</svg>
