<svg id="Group_1452" data-name="Group 1452" xmlns="http://www.w3.org/2000/svg" width="24" height="24" viewBox="0 0 24 24">
  <rect id="Rectangle_368" data-name="Rectangle 368" width="24" height="24" fill="#fff" opacity="0"/>
  <path id="Subtraction_3" data-name="Subtraction 3" d="M4.123,17.993h12.97a.9.9,0,1,0,0-1.8V4.343a4.413,4.413,0,0,0-1.138-3.2A4.378,4.378,0,0,0,12.766,0H5.226C2.477,0,.9,1.583.9,4.343V16.186a.9.9,0,1,0,0,1.8H3.628C3.779,17.99,3.942,17.993,4.123,17.993ZM9,10.791a2.7,2.7,0,0,1,2.7,2.7v2.7H6.3v-2.7A2.7,2.7,0,0,1,9,10.791Zm-1.8-3.6a.9.9,0,1,1,0,1.8H6.3a.9.9,0,1,1,0-1.8Zm4.5,0a.9.9,0,1,1,0,1.8h-.9a.9.9,0,1,1,0-1.8ZM7.2,3.6a.9.9,0,1,1,0,1.8H6.3a.9.9,0,1,1,0-1.8Zm4.5,0a.9.9,0,1,1,0,1.8h-.9a.9.9,0,1,1,0-1.8Z" transform="translate(3.007 3.007)" />
</svg>
