<svg xmlns="http://www.w3.org/2000/svg" width="25" height="24.699" viewBox="0 0 25 24.699">
  <g id="Group_2282" data-name="Group 2282" transform="translate(1 0)">
    <g id="Group_1844" data-name="Group 1844">
      <path id="Path_3201" data-name="Path 3201" d="M216.741,335h10.007c3.63,0,5.743,2.109,5.743,5.723v12.241c0,3.674-2.113,5.736-5.743,5.736H216.741c-3.688,0-5.741-2.062-5.741-5.736V340.723C211,337.109,213.053,335,216.741,335Z" transform="translate(-208.491 -335)" fill="#f36e32"/>
      <path id="Path_3202" data-name="Path 3202" d="M224.9,339.65v.011a.868.868,0,1,1,0,1.736H221.57a.874.874,0,0,1,0-1.747Zm-8.729,6.78H224.9a.869.869,0,0,0,0-1.738h-8.729a.869.869,0,0,0,0,1.738Z" transform="translate(-207.129 -333.995)" fill="#f5f5f8" fill-rule="evenodd"/>
      <g id="Group_1843" data-name="Group 1843" transform="translate(0 12.956)">
        <g id="Path_3203" data-name="Path 3203" transform="translate(-265.291 -393.533)" fill="#12123c" stroke-linecap="square">
          <path d="M 273.9605102539062 404.7763061523438 C 273.9604797363281 404.7763061523438 273.9605102539062 404.7763061523438 273.9604797363281 404.7763061523438 L 273.9574584960938 404.7763061523438 L 273.9515686035156 404.7762451171875 L 271.8540954589844 404.7514953613281 C 271.3157348632812 404.7414245605469 270.8187255859375 404.4926452636719 270.487060546875 404.06884765625 L 266.6416625976562 399.0585327148438 C 266.4171447753906 398.7613525390625 266.4697265625 398.3353576660156 266.7565612792969 398.1058959960938 L 269.9949035644531 395.4899597167969 C 270.1154479980469 395.3915405273438 270.2673034667969 395.3373718261719 270.4229125976562 395.3373718261719 C 270.6341552734375 395.3373718261719 270.8365173339844 395.4379577636719 270.9642028808594 395.6064453125 L 274.8211975097656 400.6307983398438 C 275.1512451171875 401.04833984375 275.2736206054688 401.5922546386719 275.1569213867188 402.1237487792969 L 274.6799621582031 404.2013244628906 C 274.6022644042969 404.5398254394531 274.306396484375 404.7763061523438 273.9605102539062 404.7763061523438 Z" stroke="none"/>
          <path d="M 270.4229125976562 395.8373718261719 C 270.3833312988281 395.8373718261719 270.343505859375 395.8505249023438 270.3104553222656 395.8778076171875 L 267.0689086914062 398.4963073730469 C 266.9907836914062 398.5588073730469 266.977783203125 398.6740112304688 267.0382995605469 398.7541198730469 L 270.8807983398438 403.7606811523438 C 271.122314453125 404.0692749023438 271.4784240722656 404.244384765625 271.8599853515625 404.2515258789062 L 273.9576416015625 404.2762756347656 C 274.0693054199219 404.2784423828125 274.167236328125 404.2001037597656 274.192626953125 404.0894470214844 L 274.6685485839844 402.0165100097656 C 274.7518920898438 401.6369323730469 274.6685485839844 401.242431640625 274.427001953125 400.9383850097656 L 270.565673828125 395.9084167480469 C 270.5303955078125 395.8618469238281 270.4768676757812 395.8373718261719 270.4229125976562 395.8373718261719 M 270.4229125976562 394.8373718261719 C 270.7883605957031 394.8373718261719 271.1384582519531 395.0107116699219 271.3602294921875 395.3012390136719 L 275.2156066894531 400.3234252929688 C 275.6374206542969 400.8587646484375 275.7940368652344 401.553466796875 275.645263671875 402.23095703125 L 275.6431884765625 402.2402954101562 L 275.1672668457031 404.313232421875 C 275.0371704101562 404.8801879882812 274.5409240722656 405.2763061523438 273.9605102539062 405.2763061523438 L 273.9471130371094 405.2762145996094 L 271.8412780761719 405.2513427734375 C 271.1552429199219 405.238525390625 270.5181579589844 404.9198303222656 270.0933227539062 404.3770141601562 L 270.0874938964844 404.3695068359375 L 266.2403564453125 399.3568420410156 C 265.8500671386719 398.8401489257812 265.9396057128906 398.1191711425781 266.4441833496094 397.7154541015625 L 269.6789245605469 395.1024475097656 C 269.8884582519531 394.9314575195312 270.1524353027344 394.8373718261719 270.4229125976562 394.8373718261719 Z" stroke="none" fill="#eeeef2"/>
        </g>
        <g id="Path_3204" data-name="Path 3204" transform="translate(-275.144 -392)" fill="#12123c" stroke-linecap="square">
          <path d="M 276.2376098632812 396.7516174316406 C 276.2376098632812 396.7516174316406 276.2376098632812 396.7516174316406 276.2375793457031 396.7516174316406 C 276.0281372070312 396.7516174316406 275.8334655761719 396.6567993164062 275.7034912109375 396.4915466308594 L 275.0808410644531 395.7153930664062 L 275.0787353515625 395.7127380371094 L 275.07666015625 395.7100830078125 C 274.701416015625 395.2291564941406 274.5640258789062 394.6474609375 274.6895141601562 394.0717468261719 C 274.7964172363281 393.5613403320312 275.1043395996094 393.0848083496094 275.5567016601562 392.7298278808594 L 276.4365234375 392.0284423828125 C 276.87109375 391.6824645996094 277.365234375 391.4996643066406 277.8657531738281 391.4996643066406 C 278.47705078125 391.4996643066406 279.0252380371094 391.7711181640625 279.4100341796875 392.2641906738281 L 280.0094604492188 393.0088500976562 C 280.2441711425781 393.3034973144531 280.1991271972656 393.7337036132812 279.9105834960938 393.9697875976562 L 279.3296508789062 394.4407043457031 C 278.5211791992188 395.0960388183594 277.2462158203125 396.1295776367188 276.6648864746094 396.599853515625 C 276.5455932617188 396.6972351074219 276.3932495117188 396.7516174316406 276.2376098632812 396.7516174316406 Z" stroke="none"/>
          <path d="M 276.2376098632812 396.2516174316406 C 276.2771606445312 396.2516174316406 276.3169860839844 396.2384033203125 276.3504028320312 396.2111206054688 C 277.1101684570312 395.5964965820312 279.0548706054688 394.0197143554688 279.5939331054688 393.5828552246094 C 279.6726989746094 393.5184020996094 279.6837768554688 393.4024963378906 279.6199645996094 393.3223876953125 L 279.0183715820312 392.5750427246094 C 278.4708862304688 391.8699645996094 277.5177917480469 391.8067321777344 276.7481994628906 392.41943359375 L 275.8653869628906 393.1231689453125 C 275.5027465820312 393.4077453613281 275.2605590820312 393.7820739746094 275.1785583496094 394.1759643554688 C 275.0834655761719 394.60888671875 275.1843872070312 395.0353393554688 275.4708557128906 395.4025268554688 L 276.0965270996094 396.1824645996094 C 276.1322631835938 396.2279357910156 276.1846923828125 396.2516174316406 276.2376098632812 396.2516174316406 M 276.2376098632812 397.2516174316406 L 276.2374267578125 397.2516174316406 C 275.8760070800781 397.2515563964844 275.5401611328125 397.0892944335938 275.3148193359375 396.8061218261719 L 274.6824340820312 396.0176391601562 C 274.2143859863281 395.4177551269531 274.0434265136719 394.6893920898438 274.2007751464844 393.9662780761719 C 274.3320617675781 393.3430786132812 274.7027282714844 392.7654113769531 275.2451477050781 392.3387451171875 L 276.1248474121094 391.6374816894531 C 276.6491088867188 391.2200927734375 277.2509460449219 390.9996643066406 277.8657531738281 390.9996643066406 C 278.6222534179688 390.9996643066406 279.3275146484375 391.3474426269531 279.80224609375 391.9540405273438 L 280.4021301269531 392.6993103027344 C 280.8048095703125 393.2048034667969 280.7263488769531 393.9483337402344 280.2272338867188 394.3567504882812 L 279.6445007324219 394.8291320800781 C 278.8359375 395.4845581054688 277.5607604980469 396.5182189941406 276.9793395996094 396.9885864257812 C 276.7727355957031 397.1572265625 276.5081176757812 397.2516174316406 276.2376098632812 397.2516174316406 Z" stroke="none" fill="#eeeef2"/>
        </g>
      </g>
    </g>
  </g>
</svg>
