<svg xmlns="http://www.w3.org/2000/svg" width="20" height="20" viewBox="0 0 20 20">
  <path id="Path_2942" data-name="Path 2942" d="M275.674,223.21a.821.821,0,0,0-.588-.209,9.422,9.422,0,0,0-9.083,7.89.268.268,0,0,0,0,.08.783.783,0,0,0,.2.575.816.816,0,0,0,.555.269l7.679.506a.916.916,0,0,0,.694-.23.881.881,0,0,0,.294-.658l.516-7.544v-.124A.8.8,0,0,0,275.674,223.21Zm.526,11.084-6.63-.409H269.5a1.088,1.088,0,0,0-.757.322,1.049,1.049,0,0,0-.3.753,8.671,8.671,0,0,0,6.878,7.838,8.845,8.845,0,0,0,9.6-4.284,8.213,8.213,0,0,0,1.024-3.136,6.037,6.037,0,0,0,.063-.987,8.693,8.693,0,0,0-6.955-8.431,1.174,1.174,0,0,0-1.341,1.14q-.105,1.611-.214,3.2c-.062.913-.124,1.822-.184,2.732a1.884,1.884,0,0,1-.1.631A1.025,1.025,0,0,1,276.2,234.294Z" transform="translate(-266 -223)" fill-rule="evenodd"/>
</svg>
