<svg xmlns="http://www.w3.org/2000/svg" width="36" height="36" viewBox="0 0 36 36">
  <g id="Group_2772" data-name="Group 2772" transform="translate(-1122 -22)">
    <rect id="Rectangle_366" data-name="Rectangle 366" width="36" height="36" rx="8" transform="translate(1122 22)" fill="#fff"/>
    <path id="Path_2937" data-name="Path 2937" d="M395.46,223h-3.38a2.548,2.548,0,0,0-2.54,2.561v3.409a2.542,2.542,0,0,0,2.54,2.56h3.38a2.548,2.548,0,0,0,2.54-2.56v-3.409A2.555,2.555,0,0,0,395.46,223Zm0,11.47h-3.38a2.542,2.542,0,0,0-2.54,2.561v3.409a2.548,2.548,0,0,0,2.54,2.56h3.38a2.554,2.554,0,0,0,2.54-2.56v-3.409A2.549,2.549,0,0,0,395.46,234.47ZM380.54,223h3.38a2.548,2.548,0,0,1,2.54,2.561v3.409a2.542,2.542,0,0,1-2.54,2.56h-3.38a2.548,2.548,0,0,1-2.54-2.56v-3.409A2.555,2.555,0,0,1,380.54,223Zm3.38,11.47h-3.38a2.549,2.549,0,0,0-2.54,2.561v3.409a2.554,2.554,0,0,0,2.54,2.56h3.38a2.548,2.548,0,0,0,2.54-2.56v-3.409A2.542,2.542,0,0,0,383.92,234.47Z" transform="translate(752 -193)" fill="#12123c" fill-rule="evenodd"/>
  </g>
</svg>
