<svg id="Group_1452" data-name="Group 1452" xmlns="http://www.w3.org/2000/svg" width="24" height="24" viewBox="0 0 24 24">
  <rect id="Rectangle_368" data-name="Rectangle 368" width="24" height="24" fill="#fff" opacity="0"/>
  <path id="Path_2972" data-name="Path 2972" d="M671.074,237.39h-5.386a.751.751,0,0,1-.742-.75.743.743,0,0,1,.742-.74h5.386a.743.743,0,0,1,.743.74A.752.752,0,0,1,671.074,237.39Zm-3.346-6.49h3.346a.752.752,0,0,1,.743.75.743.743,0,0,1-.743.74h-3.346a.743.743,0,0,1-.743-.74A.752.752,0,0,1,667.728,230.9Zm-7.066-.874c-.233,0-.486-.006-.716-.006a.446.446,0,0,0-.446.45v8.04a4.468,4.468,0,0,0,4.446,4.49h7.881a4.7,4.7,0,0,0,4.673-4.71V227.51a4.5,4.5,0,0,0-4.465-4.51h-5.287a.457.457,0,0,0-.456.46v3.22a3.349,3.349,0,0,1-3.307,3.34c-.423,0-.8,0-1.123.006-.254,0-.48,0-.679,0C661.042,230.03,660.86,230.028,660.662,230.026Zm-.273-1.46c.814,0,1.773,0,2.463-.007a2.017,2.017,0,0,0,2-2.017v-2.636a.473.473,0,0,0-.814-.334c-.535.563-1.272,1.336-2,2.106l-1.981,2.081A.477.477,0,0,0,660.389,228.566Z" transform="translate(-656 -221)" fill-rule="evenodd"/>
</svg>
