<svg xmlns="http://www.w3.org/2000/svg" width="18" height="20" viewBox="0 0 18 20">
  <path id="Path_3035" data-name="Path 3035" d="M224.19,335h-8.381c-3.089,0-4.809,1.78-4.809,4.83v10.33c0,3.1,1.72,4.84,4.809,4.84h8.381c3.04,0,4.81-1.74,4.81-4.84V339.83C229,336.78,227.23,335,224.19,335Zm-.27,4.66v-.01h-2.989a.785.785,0,0,0,0,1.57h2.989a.78.78,0,0,0,0-1.56Zm0,6.08h-7.84a.781.781,0,0,1,0-1.561h7.84a.781.781,0,0,1,0,1.561Zm0,4.57h-7.84a.79.79,0,0,1,0-1.57h7.84a.784.784,0,0,1,.75.37.8.8,0,0,1,0,.84A.777.777,0,0,1,223.92,350.31Z" transform="translate(-211 -335)" fill="#8a8aa5" fill-rule="evenodd"/>
</svg>
