<svg xmlns="http://www.w3.org/2000/svg" width="89.87" height="88.976" viewBox="0 0 89.87 88.976"><g transform="translate(0.993 1)"><circle cx="34" cy="34" r="34" transform="translate(10.5 8.5)" fill="#8a8aa5" opacity="0.12"/><path d="M44-1c.339,0,.683,0,1.022.011A1,1,0,0,1,46,.033a1,1,0,0,1-1.022.978C44.654,1,44.325,1,44,1a1,1,0,0,1-1-1A1,1,0,0,1,44-1Zm-3.918.17a1,1,0,0,1,.086,2c-.323.028-.651.06-.973.1a1,1,0,0,1-.218-1.988c.337-.037.679-.071,1.017-.1C40.023-.829,40.053-.83,40.082-.83ZM52.939-.1a1,1,0,0,1,.2.02c.333.068.669.14,1,.216a1,1,0,0,1-.444,1.95c-.316-.072-.638-.141-.955-.206a1,1,0,0,1,.2-1.98ZM31.256.852a1,1,0,0,1,.286,1.958c-.311.093-.625.19-.933.29a1,1,0,0,1-.616-1.9c.323-.1.651-.207.977-.3A1,1,0,0,1,31.256.852Zm30.259,1.73a1,1,0,0,1,.394.081c.312.134.626.273.935.414A1,1,0,1,1,62.013,4.9c-.295-.135-.6-.268-.894-.4a1,1,0,0,1,.4-1.919ZM22.953,4.289a1,1,0,0,1,.476,1.88c-.285.154-.573.313-.855.474a1,1,0,0,1-.989-1.738c.295-.168.6-.335.895-.5A1,1,0,0,1,22.953,4.289ZM69.366,6.951a1,1,0,0,1,.572.18c.278.194.558.395.832.6A1,1,0,1,1,69.587,9.34c-.262-.192-.529-.383-.795-.569a1,1,0,0,1,.574-1.82ZM15.522,9.339a1,1,0,0,1,.644,1.766c-.248.209-.5.423-.741.637a1,1,0,0,1-1.321-1.5c.255-.224.516-.448.775-.667A1,1,0,0,1,15.522,9.339ZM76.168,12.82a1,1,0,0,1,.727.313c.233.247.466.5.694.752a1,1,0,1,1-1.485,1.34c-.217-.241-.44-.482-.663-.718a1,1,0,0,1,.727-1.687ZM9.27,15.79a1,1,0,0,1,.785,1.619c-.2.255-.4.515-.6.774a1,1,0,0,1-1.6-1.2c.2-.271.414-.544.624-.811A1,1,0,0,1,9.27,15.79ZM81.633,19.95a1,1,0,0,1,.853.477c.178.289.355.585.525.878a1,1,0,1,1-1.728,1.007c-.163-.28-.332-.562-.5-.838a1,1,0,0,1,.851-1.524ZM4.467,23.382a1,1,0,0,1,.9,1.444c-.144.29-.287.587-.424.88a1,1,0,0,1-1.812-.846c.144-.308.293-.618.444-.922A1,1,0,0,1,4.467,23.382Zm81.048,4.671a1,1,0,0,1,.942.665c.114.32.226.646.332.968a1,1,0,0,1-1.9.627c-.1-.308-.208-.619-.317-.924a1,1,0,0,1,.942-1.336ZM1.339,31.8a1,1,0,0,1,.97,1.248c-.08.314-.158.633-.231.949a1,1,0,1,1-1.949-.45c.076-.331.158-.665.242-.994A1,1,0,0,1,1.339,31.8Zm86.286,4.981a1,1,0,0,1,.99.869c.045.336.086.678.123,1.016a1,1,0,0,1-1.988.217c-.035-.322-.075-.649-.117-.97a1,1,0,0,1,.993-1.132ZM.037,40.693H.079a1,1,0,0,1,.958,1.04c-.013.324-.023.652-.029.977a1,1,0,0,1-1.018.981,1,1,0,0,1-.981-1.018c.006-.34.017-.684.031-1.022A1,1,0,0,1,.037,40.693Zm87.84,5.074.076,0a1,1,0,0,1,.922,1.072c-.025.339-.055.682-.088,1.019a1,1,0,0,1-1.99-.2c.032-.322.06-.65.084-.973A1,1,0,0,1,87.877,45.766ZM.594,49.66a1,1,0,0,1,.985.835c.054.32.112.643.173.961a1,1,0,0,1-1.964.376c-.064-.333-.125-.672-.181-1.007A1,1,0,0,1,.594,49.66Zm85.679,4.945a1,1,0,0,1,.96,1.281c-.1.326-.2.655-.3.979a1,1,0,1,1-1.906-.606c.1-.309.194-.623.285-.934A1,1,0,0,1,86.273,54.606ZM3,58.316a1,1,0,0,1,.93.633c.119.3.243.606.369.9a1,1,0,1,1-1.843.778c-.132-.313-.262-.632-.387-.947A1,1,0,0,1,3,58.316Zm79.865,4.6a1,1,0,0,1,.88,1.474c-.161.3-.328.6-.5.9a1,1,0,0,1-1.738-.989c.16-.282.319-.569.473-.855A1,1,0,0,1,82.863,62.916ZM7.151,66.282a1,1,0,0,1,.835.448c.179.27.363.542.548.809A1,1,0,1,1,6.892,68.68c-.194-.279-.387-.564-.574-.847a1,1,0,0,1,.833-1.552Zm70.657,4.061a1,1,0,0,1,.764,1.645c-.219.259-.444.52-.668.774a1,1,0,0,1-1.5-1.324c.215-.243.43-.492.639-.74A1,1,0,0,1,77.808,70.343ZM12.853,73.226a1,1,0,0,1,.7.29c.23.228.467.457.7.68a1,1,0,1,1-1.375,1.452c-.246-.233-.494-.473-.735-.712a1,1,0,0,1,.7-1.71Zm58.489,3.358a1,1,0,0,1,.618,1.787c-.267.21-.54.419-.811.622a1,1,0,1,1-1.2-1.6c.26-.194.52-.395.775-.595A1,1,0,0,1,71.342,76.583ZM19.848,78.866a1,1,0,0,1,.544.162c.272.177.549.353.825.524a1,1,0,0,1-1.052,1.7c-.289-.179-.579-.363-.864-.548a1,1,0,0,1,.546-1.838Zm43.9,2.517a1,1,0,0,1,.446,1.9c-.3.151-.614.3-.921.445a1,1,0,1,1-.85-1.81c.294-.138.59-.281.88-.425A1,1,0,0,1,63.747,81.383ZM27.838,82.971a1,1,0,0,1,.364.069c.3.118.61.234.914.345a1,1,0,0,1-.685,1.879c-.319-.116-.641-.238-.957-.361a1,1,0,0,1,.364-1.932Zm27.5,1.571a1,1,0,0,1,.254,1.967c-.328.086-.662.17-.992.249a1,1,0,1,1-.465-1.945c.315-.075.634-.155.948-.238A1,1,0,0,1,55.338,84.542ZM36.5,85.37a1.006,1.006,0,0,1,.169.014c.32.054.644.106.966.153a1,1,0,1,1-.29,1.979c-.336-.049-.676-.1-1.01-.16A1,1,0,0,1,36.5,85.37Zm9.966.563a1,1,0,0,1,.054,2c-.338.018-.682.033-1.021.044a1,1,0,1,1-.065-2c.324-.01.653-.025.977-.042Z" fill="#f36e32"/><g transform="translate(25.482 26.459)"><path d="M41.134,28.053l-15,4-15-14a.815.815,0,0,0-1,0c-.457.291-.332.626,0,1l14,15-14,10c-.374.249-.917-.585-1-1l-6-31c-.125-.581.46-1.208,1-1l37,15C41.674,26.3,41.716,27.887,41.134,28.053Z" transform="translate(-3.117 -11.013)" fill="#12123c"/><path d="M44.446,77.486v-7c0-.291.208-.166,0,0l-4,3c-.249.166-.208-.208,0,0l3,4C43.778,77.943,44.4,78.067,44.446,77.486Z" transform="translate(-21.428 -45.445)" fill="#8a8aa5"/></g></g></svg>