<svg xmlns="http://www.w3.org/2000/svg" width="23.309" height="23.309" viewBox="0 0 23.309 23.309">
  <g id="rasd" transform="translate(-0.2 -0.1)">
    <path id="Path_3447" data-name="Path 3447" d="M23.509,11.55v.409a1,1,0,0,1-1.125.716h-.613c-.92,5.112-3.885,8.179-9,9v.613c0,.613-.2,1.022-.716,1.125H11.65a1,1,0,0,1-.716-1.125v-.613c-5.112-.92-8.179-3.885-9-9H1.325c-.613,0-1.022-.2-1.125-.716V11.55a1,1,0,0,1,1.125-.716h.613c.92-5.112,3.885-8.179,9-9V1.225c0-.613.2-1.022.716-1.125h.409a1,1,0,0,1,.716,1.125v.613c5.112.92,8.179,3.885,9,9h.613A1.106,1.106,0,0,1,23.509,11.55ZM3.778,12.675a8.035,8.035,0,0,0,7.054,7.054v-.716a.925.925,0,1,1,1.84,0v.818a8.147,8.147,0,0,0,7.156-7.156h-.818a.944.944,0,0,1-1.022-.92.916.916,0,0,1,.92-.92h.818A7.933,7.933,0,0,0,12.672,3.78V4.5a.925.925,0,1,1-1.84,0V3.678a7.948,7.948,0,0,0-7.054,7.156H4.6a.944.944,0,0,1,1.022.92.916.916,0,0,1-.92.92Z"/>
    <path id="Path_3448" data-name="Path 3448" d="M13.942,14.382v.511a1.266,1.266,0,0,1-1.84.818c-.1,0-.1-.1-.1-.2V14.28c.409,0,.716,0,.92-.307a1.453,1.453,0,0,0,.2-.613c0-.511-.409-.818-1.125-.818v-.716h.92c.409,0,.511-.2.409-.613-.1-.2,0-.307.1-.511a.456.456,0,0,1,.511,0c.1.1.2.307.1.409-.2.409-.1.613.409.613h.716c.1,0,.2,0,.307.2a1.715,1.715,0,0,1-1.227,2.454Z" transform="translate(0.264 0.235)"/>
    <path id="Path_3449" data-name="Path 3449" d="M10.662,11.7h.818v1.022c0,.307.2.409.511.307.2-.1.409-.1.511.1a.456.456,0,0,1,0,.511c-.1.2-.307.2-.511.1-.307-.1-.511,0-.511.307V15.38a.531.531,0,0,1-.2.409,1.3,1.3,0,0,1-1.84-1.227v-.2a.376.376,0,0,1-.307-.1A1.6,1.6,0,0,1,8,11.9c.1-.1.1-.2.307-.2h.613c0,.409,0,.716.307.92a1.453,1.453,0,0,0,.613.2C10.356,12.825,10.662,12.416,10.662,11.7Z" transform="translate(0.17 0.259)"/>
    <path id="Path_3450" data-name="Path 3450" d="M9.333,8.732c.1-.307.1-.613.2-.818A1.31,1.31,0,0,1,11.275,7.4c.1.1.2.1.2.307V8.834c-.716.1-1.125.409-1.125.92s.409.818,1.125.92v.716h-.92c-.409,0-.511.2-.409.511.1.2.1.409-.1.511a.311.311,0,0,1-.409,0c-.2-.1-.2-.307-.1-.511.2-.409,0-.511-.409-.511H8.311c-.1,0-.2,0-.307-.2A1.715,1.715,0,0,1,9.231,8.732Z" transform="translate(0.17 0.16)"/>
    <path id="Path_3451" data-name="Path 3451" d="M13.969,8.734A1.633,1.633,0,0,1,15.5,10.063a1.448,1.448,0,0,1-.1,1.125c0,.1-.2.1-.2.1h-.613a.776.776,0,0,0-.307-.92,1.453,1.453,0,0,0-.613-.2c-.511,0-.818.409-.92,1.125h-.818v-.92c0-.409-.2-.511-.511-.409-.2.1-.409.1-.511-.1a.456.456,0,0,1,0-.511c.1-.2.307-.2.511-.1.307.1.511,0,.511-.307V7.61c0-.2.1-.307.2-.307a1.286,1.286,0,0,1,1.84,1.125Z" transform="translate(0.237 0.158)"/>
  </g>
</svg>
