<svg xmlns="http://www.w3.org/2000/svg" width="17.1" height="18" viewBox="0 0 17.1 18">
  <path id="Path_2971" data-name="Path 2971" d="M267.488,345.422a2.069,2.069,0,0,0-.745.711,1.816,1.816,0,0,0,.018,1.845l.644,1.08a1.887,1.887,0,0,0,2.6.666,1.467,1.467,0,0,1,.809-.207,1.718,1.718,0,0,1,1.7,1.638,1.861,1.861,0,0,0,1.9,1.845h1.251a1.863,1.863,0,0,0,1.913-1.845,1.7,1.7,0,0,1,1.692-1.638,1.426,1.426,0,0,1,.809.207,1.946,1.946,0,0,0,.976.27,1.92,1.92,0,0,0,1.637-.936l.634-1.08a1.794,1.794,0,0,0,.018-1.845,1.9,1.9,0,0,0-.735-.711,1.474,1.474,0,0,1-.58-.576,1.651,1.651,0,0,1,.6-2.25,1.84,1.84,0,0,0,.681-2.547l-.616-1.062a1.912,1.912,0,0,0-2.594-.684,1.767,1.767,0,0,1-2.308-.621,1.384,1.384,0,0,1-.211-.792,1.61,1.61,0,0,0-.257-.954A1.976,1.976,0,0,0,275.7,335h-1.3a1.937,1.937,0,0,0-1.637.936,1.6,1.6,0,0,0-.248.954,1.4,1.4,0,0,1-.211.792,1.776,1.776,0,0,1-2.318.621,1.9,1.9,0,0,0-2.584.684l-.616,1.062a1.824,1.824,0,0,0,.68,2.547,1.639,1.639,0,0,1,.589,2.25A1.389,1.389,0,0,1,267.488,345.422Zm10.163-1.413a2.6,2.6,0,1,1-2.612-2.547A2.568,2.568,0,0,1,277.651,344.009Z" transform="translate(-266.5 -335)"  fill-rule="evenodd"/>
</svg>
