<svg xmlns="http://www.w3.org/2000/svg" width="18" height="18" viewBox="0 0 18 18">
  <g id="Group_1110" data-name="Group 1110" transform="translate(0 0)">
    <path id="Path_363" data-name="Path 363" d="M18.093,23.817a1.146,1.146,0,0,1,1.012-.439c.335.04.929.274,1.116,1.444,0,.025.238,2.509,2.027,2.426h.04v6.818H16.052a1.128,1.128,0,0,1-.817-.342,1.149,1.149,0,0,1-.335-.817,1.136,1.136,0,0,1,.3-.774,1.137,1.137,0,0,1,0-1.544,1.142,1.142,0,0,1,0-1.544,1.164,1.164,0,0,1-.3-.774,1.182,1.182,0,0,1,.335-.821,1.149,1.149,0,0,1,.817-.338h2.264C17.888,26.269,17.312,24.757,18.093,23.817Z" transform="translate(-7.887 -16.919)" />
    <path id="Path_364" data-name="Path 364" d="M5.082,31.91H7.227a.38.38,0,0,1,.382.382V40a.382.382,0,0,1-.382.382H5.082A.382.382,0,0,1,4.7,40V32.292A.375.375,0,0,1,5.082,31.91Zm.691,6.854a.382.382,0,1,0,.763,0v-.385a.382.382,0,1,0-.763,0v.385Z" transform="translate(10.391 -22.384)" />
    <path id="Path_365" data-name="Path 365" d="M33.944,4.55a4.687,4.687,0,0,1,3.28,8.035l.533,1.238a.376.376,0,0,1-.076.418.38.38,0,0,1-.27.119.442.442,0,0,1-.14-.025l-1.728-.684a4.69,4.69,0,1,1-1.6-9.1Zm1.775,5.126h.371a.382.382,0,1,0,0-.763h-.371a.382.382,0,0,0,0,.763Zm-1.958,0h.371a.382.382,0,0,0,0-.763H33.76a.382.382,0,0,0,0,.763Zm-1.955,0h.367a.382.382,0,0,0,0-.763H31.8a.38.38,0,0,0-.382.382A.385.385,0,0,0,31.805,9.676Z" transform="translate(-29.26 -4.55)" />
  </g>
</svg>
